<svg width="64" height="64" viewBox="0 0 64 64" fill="none" xmlns="http://www.w3.org/2000/svg">
  <circle cx="32" cy="32" r="30" fill="#1a1a2e"/>
  <circle cx="32" cy="32" r="28" fill="#ffffff"/>
  
  <!-- Panda ears -->
  <circle cx="20" cy="18" r="8" fill="#000000"/>
  <circle cx="44" cy="18" r="8" fill="#000000"/>
  <circle cx="20" cy="18" r="5" fill="#ffffff"/>
  <circle cx="44" cy="18" r="5" fill="#ffffff"/>
  
  <!-- Panda face -->
  <circle cx="32" cy="32" r="18" fill="#ffffff"/>
  
  <!-- Eye patches -->
  <ellipse cx="26" cy="28" rx="6" ry="8" fill="#000000"/>
  <ellipse cx="38" cy="28" rx="6" ry="8" fill="#000000"/>
  
  <!-- Eyes -->
  <circle cx="26" cy="28" r="3" fill="#ffffff"/>
  <circle cx="38" cy="28" r="3" fill="#ffffff"/>
  <circle cx="26" cy="28" r="1.5" fill="#000000"/>
  <circle cx="38" cy="28" r="1.5" fill="#000000"/>
  
  <!-- Nose -->
  <ellipse cx="32" cy="36" rx="2" ry="1.5" fill="#000000"/>
  
  <!-- Mouth -->
  <path d="M32 38 Q28 42 24 40" stroke="#000000" stroke-width="2" fill="none" stroke-linecap="round"/>
  <path d="M32 38 Q36 42 40 40" stroke="#000000" stroke-width="2" fill="none" stroke-linecap="round"/>
  
  <!-- Security shield overlay -->
  <path d="M32 8 L40 12 L40 24 Q40 32 32 36 Q24 32 24 24 L24 12 Z" fill="#6366f1" opacity="0.8"/>
  <path d="M32 12 L36 14 L36 22 Q36 26 32 28 Q28 26 28 22 L28 14 Z" fill="#ffffff"/>
  <path d="M30 18 L32 20 L36 16" stroke="#6366f1" stroke-width="2" fill="none" stroke-linecap="round" stroke-linejoin="round"/>
</svg>